<svg width="146" height="24" fill="none" xmlns="http://www.w3.org/2000/svg" opacity="0.5">
 <title>Canary Technologies logo</title>
 <path fill-rule="evenodd" clip-rule="evenodd" d="M63.8283 10.1473c-.1988.6608-.5219 1.3215-.9195 1.9351-.3977.6371-.8947 1.1799-1.4663 1.6755-.5716.4955-1.2426.8731-1.9881 1.1799-.7456.2832-1.5906.4484-2.4852.4484-1.1432 0-2.187-.1888-3.1065-.5664-.9195-.3776-1.7148-.8968-2.3609-1.5575-.6462-.6608-1.1432-1.4631-1.4911-2.3834-.348-.92038-.5219-1.91151-.5219-2.99704 0-1.10912.1739-2.12385.5467-3.09139.3479-.96753.8698-1.79347 1.5408-2.50143.671-.70795 1.4663-1.27431 2.3858-1.675482C54.8816.212385 55.9502 0 57.0934 0c.9692 0 1.8639.165189 2.6592.495566.7952.330378 1.4911.755144 2.0627 1.274314.5716.51916 1.0438 1.08553 1.4165 1.72268.348.63716.5965 1.25072.671 1.88787h-3.181c-.0994-.35397-.2485-.68435-.4722-1.01473-.2237-.33038-.4722-.61356-.7704-.87314-.2982-.25958-.6461-.47197-1.0438-.61356-.3976-.14159-.8201-.23598-1.2674-.23598-.6959 0-1.3172.14159-1.8639.42477s-1.0189.66076-1.3917 1.13272c-.3728.47197-.671 1.03833-.8698 1.67549-.1988.63716-.2982 1.32151-.2982 2.02946 0 .68435.0994 1.34511.2733 1.93507.174.58997.4474 1.10917.8201 1.55747.348.4484.7953.7788 1.342 1.0384.5219.2595 1.1432.3775 1.8391.3775.4473 0 .8449-.0708 1.2426-.1888.3727-.1416.7207-.3067 1.0437-.5427.2983-.236.5716-.5192.8202-.826.2236-.3067.4224-.6607.5715-1.0383h3.1314v-.0708zM73.9282.5896h-2.7679l-6.9445 14.4751h3.4105c.1242-.2351.2484-.492.3812-.7667.105-.2173.2154-.4456.3355-.6831.2407-.4556.4427-.9112.6231-1.3181.0233-.0526.0462-.1043.0689-.1552h6.895l1.384 2.9465h3.5093L73.9282.5896zm.7901 8.91331h-4.4484l2.1995-4.60677c.0659.13862.1297.2752.1919.4085.1477.31642.2868.6144.4259.87765.1357.25678.2598.51356.3802.76279.055.11391.1093.22625.1635.33629l.519 1.05231c.0213.0432.043.08711.065.13169.1567.31736.3301.66846.5034 1.03754zM82.7039.5896h2.8641l7.397 9.04986V.5896h3.2129v14.4985H93.488l-7.5464-9.23695v9.23695h-3.2377V.5896zM107.76.5896h-2.772l-6.9301 14.4751h3.4151c.125-.2351.249-.492.382-.7667.105-.2173.216-.4456.336-.6831.241-.4556.444-.9112.624-1.3181.024-.0526.047-.1043.069-.1552h6.881l1.386 2.9465h3.514L107.76.5896zm.792 8.91331h-4.455l2.203-4.60677c.066.13862.13.2752.192.4085.148.31642.287.6144.427.87765.136.25677.26.51355.38.76276.056.11393.11.22628.164.33632l.52 1.05231c.021.04317.043.08705.065.13159.157.31738.331.66852.504 1.03764zM125.74.630404c-.75-.214412-1.626-.333529-2.652-.333529h-6.856V15.0674h3.253V9.49273h2.652l4.104 5.59857h3.778l-4.429-5.86062c1.176-.35736 2.077-.92912 2.652-1.69147.576-.78617.876-1.66764.876-2.66823 0-.69088-.125-1.31029-.375-1.88205-.25-.54794-.626-1.02441-1.126-1.42941-.501-.405-1.126-.714705-1.877-.929116zm-6.256 6.216106V2.93946h3.428c1.051 0 1.827.16677 2.277.54794.45.38118.676.85765.676 1.40559 0 .57176-.226 1.04823-.701 1.40558-.45.35735-1.201.54794-2.252.54794h-3.428zM136.203 15.0881V9.38223L129.706.5896h3.934l4.188 5.82278L142.066.5896H146l-6.523 8.79263v5.68247h-3.274v.0234zM55.8498 18.4407h-2.0861v4.8567h-.8043v-4.8567h-2.0861v-.6428h4.9765v.6428zM63.315 23.3212h-4.3733v-5.5233h4.2979v.6428h-3.4685v1.6427h3.0663v.6428h-3.0663v1.9046h3.5439v.6904zM71.2572 21.7746c-.0754.2143-.1759.4286-.3016.6428-.1256.2143-.3016.381-.5026.5476-.2011.1667-.4273.2857-.7038.3809-.2765.0953-.5529.1429-.8797.1429-.4273 0-.7791-.0714-1.131-.2143-.3268-.1428-.6284-.3333-.8546-.5952-.2262-.2619-.4021-.5476-.5278-.9047-.1257-.3571-.1759-.738-.1759-1.1427 0-.4286.0754-.8095.201-1.1666.1257-.3571.3017-.6904.553-.9523s.5278-.4762.8797-.6428c.3267-.1429.7289-.2381 1.131-.2381.3519 0 .6786.0476.9551.1666.2765.1191.5278.2381.7289.4286.2011.1666.377.3571.5027.5714.1256.2142.201.4047.2262.619h-.8546c-.0251-.1429-.1005-.2857-.201-.4286-.1006-.1428-.2011-.2619-.3268-.3571-.1257-.0952-.2765-.1905-.4524-.2381-.1759-.0714-.377-.0952-.5781-.0952-.3016 0-.5781.0714-.8294.1905-.2513.119-.4524.2857-.6032.4999-.176.2143-.3016.4524-.377.7381-.1006.2857-.1257.5713-.1257.9047 0 .3095.0503.5951.1257.857.0754.2619.201.5.3518.6905.1508.1904.3519.3571.6033.4523.2262.119.5026.1667.8042.1667.2011 0 .3771-.0239.553-.0715.1759-.0476.3267-.119.4524-.2142.1257-.0953.2513-.2143.3519-.3333.1005-.1191.1759-.2619.2262-.4048h.7791zM79.275 23.3212h-.8295v-2.3569h-3.1668v2.3569h-.8043v-5.5233h.8043v2.4998h3.1668v-2.4998h.8295v5.5233zM82.668 17.7979h.7791l3.192 4.1425v-4.1425h.8043v5.5233h-.7289l-3.2422-4.2139v4.2139h-.8043v-5.5233zM94.6316 17.8951c-.3267-.1667-.7289-.2381-1.1562-.2381-.4524 0-.8294.0714-1.1561.2381-.3519.1428-.6535.3571-.8797.619-.2262.2618-.4022.5713-.5278.9285-.1257.3333-.176.7142-.176 1.1189 0 .3809.0503.7619.176 1.119.1005.3571.3016.6666.5278.9285.2513.2619.5278.4761.8797.619.3267.1666.7289.2381 1.1561.2381.4273 0 .8043-.0953 1.1562-.2381.3268-.1429.6284-.3571.8546-.619.2262-.2619.4021-.5714.5278-.9285.1256-.3333.1759-.7142.1759-1.119 0-.3809-.0503-.7618-.1759-1.1189-.1257-.3572-.3016-.6667-.5278-.9285-.2262-.2619-.5027-.4762-.8546-.619zm-.3774 4.7615c-.2262.1191-.5026.1667-.7791.1667-.3016 0-.553-.0714-.7792-.1667-.2262-.119-.4273-.2856-.6032-.4761-.1759-.1905-.3016-.4524-.4021-.7142-.1006-.2619-.1508-.5714-.1508-.9047 0-.3333.0502-.619.1508-.9047.1005-.2857.2262-.5238.4021-.7143.1508-.2142.377-.3571.6032-.4761.2262-.1191.5027-.1667.7792-.1667.2765 0 .5529.0476.7791.1667.2262.119.4273.2857.6033.4761.1759.1905.3016.4524.4021.7143.1005.2619.1508.5714.1508.9047 0 .3333-.0503.619-.1508.9047-.1005.2857-.2262.5237-.4021.7142-.1509.2143-.3771.3571-.6033.4761zM103.806 23.3212h-4.3231v-5.5233h.8041v4.8567h3.494v.6666h.025zM110.466 17.8951c-.327-.1667-.729-.2381-1.157-.2381-.452 0-.829.0714-1.156.2381-.352.1428-.653.3571-.879.619-.227.2618-.403.5713-.528.9285-.126.3333-.176.7142-.176 1.1189 0 .3809.05.7619.176 1.119.1.3571.301.6666.528.9285.251.2619.527.4761.879.619.327.1666.729.2381 1.156.2381.428 0 .805-.0953 1.157-.2381.326-.1429.628-.3571.854-.619.226-.2619.402-.5714.528-.9285.126-.3333.176-.7142.176-1.119 0-.3809-.05-.7618-.176-1.1189-.126-.3572-.302-.6667-.528-.9285-.226-.2619-.503-.4762-.854-.619zm-.377 4.7615c-.226.1191-.503.1667-.779.1667-.302 0-.553-.0714-.779-.1667-.227-.119-.428-.2856-.604-.4761s-.301-.4524-.402-.7142c-.1-.2619-.151-.5714-.151-.9047 0-.3333.051-.619.151-.9047.101-.2857.226-.5238.402-.7143.151-.2142.377-.3571.604-.4761.226-.1191.502-.1667.779-.1667.276 0 .553.0476.779.1667.226.119.427.2857.603.4761.176.1905.302.4524.402.7143.101.2619.151.5714.151.9047 0 .3333-.05.619-.151.9047-.1.2857-.226.5237-.402.7142-.151.2143-.377.3571-.603.4761zM120.243 23.3224h-.704v-.5714c-.176.1904-.427.3809-.729.5237-.301.1429-.653.2143-1.081.2143-.377 0-.703-.0714-1.03-.1904-.327-.1191-.578-.3095-.83-.5476-.226-.2381-.402-.5476-.552-.8809-.126-.3571-.202-.738-.202-1.1904 0-.4523.076-.8571.202-1.238.15-.3571.326-.6904.578-.9523.251-.2619.527-.4524.854-.5952.327-.1428.679-.2143 1.081-.2143.302 0 .603.0476.855.1191.276.0952.502.2142.703.3571.201.1428.377.3333.528.5476.151.2142.251.4523.302.6904h-.83c-.05-.1667-.125-.3095-.226-.4524-.1-.1428-.226-.238-.377-.3333-.151-.0952-.302-.1666-.478-.2142-.175-.0477-.351-.0715-.552-.0715-.252 0-.503.0477-.729.1667-.227.119-.428.2619-.604.4523-.175.1905-.301.4524-.402.7381-.1.2857-.151.619-.151.9761 0 .3333.051.619.126.9047.076.2619.201.5.377.6904.151.1905.352.3333.578.4286.226.0952.478.1666.754.1666.226 0 .453-.0238.654-.0952s.377-.1667.502-.2857c.151-.1191.252-.2619.327-.4047.076-.1429.126-.3095.126-.4762v-.4285h-1.81v-.6429h2.614v2.8094h.126zM124.416 23.3212h-.805v-5.5233h.805v5.5233zM132.182 23.3212h-4.373v-5.5233h4.272v.6428h-3.468v1.6427h3.066v.6428h-3.066v1.9046h3.544v.6904h.025zM136.203 19.2274c0 .1429.051.2857.151.381.101.0952.226.1904.402.2618.151.0715.352.1429.553.1905.201.0476.427.119.654.1905.226.0714.427.1428.653.2142.201.0715.402.1905.553.3095.151.1191.302.2619.402.4286.101.1666.151.3809.151.619 0 .2142-.05.4285-.151.619-.1.1904-.251.3809-.452.5237-.201.1429-.427.2857-.729.381-.276.0952-.603.1428-.98.1428s-.729-.0476-1.006-.1666c-.276-.0953-.527-.2381-.703-.4048-.176-.1666-.327-.3571-.428-.5475-.1-.1905-.15-.4048-.15-.5952h.754c.075.3095.226.5713.502.7618.277.1905.603.2857 1.006.2857.251 0 .452-.0238.628-.0952.176-.0715.327-.1429.452-.2381.126-.0952.227-.2143.277-.3333.05-.1191.1-.2381.1-.3571 0-.1667-.05-.3095-.15-.4048-.101-.119-.227-.2142-.403-.2857-.15-.0714-.351-.1428-.553-.2142-.201-.0714-.427-.1191-.628-.1905-.226-.0714-.427-.1428-.628-.2143-.201-.0714-.402-.1666-.553-.2857-.151-.119-.302-.238-.402-.4047-.101-.1666-.151-.3571-.151-.5714 0-.2142.05-.4047.151-.5952.1-.1904.226-.3571.402-.4999.176-.1429.402-.2619.653-.3333.252-.0953.553-.1191.905-.1191.327 0 .603.0476.855.1191.251.0714.452.1904.628.3333.176.1428.302.3095.402.4999.101.1905.151.381.201.5952h-.779c-.075-.2619-.201-.4761-.427-.6428-.226-.1666-.503-.2619-.88-.2619-.201 0-.377.0238-.528.0715-.15.0476-.301.119-.402.2142-.1.0953-.201.1905-.251.2857-.076.0953-.101.2143-.101.3333z" fill="#FFFFFF" class="logo-text" />
 <path fill-rule="evenodd" clip-rule="evenodd" d="M2.3714 1.80937h1.475c3.17987 0 6.264.60683 9.1948 1.78372 2.8159 1.14011 5.3253 2.77672 7.4899 4.85466.3831.36778.7471.75395 1.1111 1.14011.1724.20228.4214.29422.6896.29422.2107 0 .4214-.07355.5938-.22066.3831-.31261.4214-.86428.0766-1.23206-.3831-.42294-.7854-.8275-1.1876-1.21366-2.337-2.24345-5.038-3.99039-8.0646-5.22245C10.6084.724422 7.2753.0808105 3.86556.0808105h-1.475c-.49805 0-.90033.3861665-.90033.8642775 0 .478112.38312.864282.88117.864282zM.90445 6.86522h2.80957c2.50167 0 4.94561.48202 7.23558 1.40897 1.3086.53763 2.5594 1.20503 3.6948 2.00221.1539.1112.3464.1669.5388.1669.2887 0 .5581-.1298.7313-.3523.2886-.38931.2116-.94548-.1925-1.22356-1.2508-.87134-2.6171-1.6129-4.0604-2.20614-2.52088-1.01965-5.19575-1.53874-7.94758-1.53874H.90445C.404116 5.12256 0 5.51188 0 5.99389c0 .48202.404116.87133.90445.87133zM22.639 6.52165c.1945 0 .389-.05443.564-.18143 1.5752-1.12488 3.3255-2.06833 5.173-2.79406 2.956-1.16116 6.1065-1.75989 9.3348-1.75989h1.5947c.5056 0 .914-.38101.914-.852729 0-.471723-.4084-.8527305-.914-.8527305h-1.5947c-3.4811 0-6.8455.6350125-10.0349 1.8868895-1.9836.78016-3.8506 1.79618-5.562 3.01178-.4084.29029-.4862.81644-.175 1.19745.1556.23586.4278.34472.7001.34472z" fill="#FFFFFF" class="logo-image" />
 <path fill-rule="evenodd" clip-rule="evenodd" d="M18.3287 8.50049C17.17 9.7451 16.1683 11.0979 15.3042 12.541c-.2357.4148-.0786.9379.3731 1.1544.1375.0721.2946.1082.4518.1082.3338 0 .6481-.1623.8052-.4509.7856-1.3348 1.7283-2.5975 2.8085-3.7519.3339-.36076.2749-.9019-.0982-1.1905-.3928-.30664-.982-.27057-1.3159.09019zM29.6548 6.63227c-2.4364.94135-4.6408 2.30897-6.5165 4.03183-.5221.4795-1.0249.9946-1.489 1.5097-.3094.3552-.2514.8881.1354 1.1722.174.1244.3674.1777.5801.1777.2707 0 .5221-.1066.7155-.3198.4254-.4795.8701-.9413 1.3536-1.3853 1.7209-1.5808 3.7127-2.80632 5.9364-3.67662 2.3011-.88807 4.7569-1.34986 7.2707-1.34986h2.8619c.5028 0 .9088-.37299.9088-.83478s-.406-.83478-.9088-.83478H37.641c-2.7845.03552-5.4723.53284-7.9862 1.50971z" fill="#FFFFFF" class="logo-image" />
 <path fill-rule="evenodd" clip-rule="evenodd" d="M41.3629 10.9321c-.0049.0134-.0097.0267-.0097.0356 0 .0064-.0007.0123-.0012.0176-.0027.0244-.0042.039.0593.0536-3.117 6.7808-9.8737 11.4081-17.6952 12.3692-.1161.0534-.2323.0712-.3485.0712h-.1355c-.8325.089-1.6649.1246-2.5168.1246-.9099 0-1.8198-.0534-2.7298-.1602h-.0387c-3.4848-.3916-6.7954-1.5306-9.73812-3.3459-3.62034-2.2425-6.42755-5.3748-8.1312396-9.0411l-.0580803-.1602C0 10.8075 0 10.7364 0 10.6474v-.089c.0193601-.0178.0193601-.0356.0193601-.0534v-.0356c0-.0089.00484-.0178.0096801-.0267.00484-.0089.00968-.0178.00968-.0267v-.0178c0-.0089.00484-.0178.00968-.0267.0048401-.0089.0096801-.0178.0096801-.0267.0193601 0 .0193601-.0178.0193601-.0178s.0193601-.0178.0193601-.0356c0-.0089.0048405-.0133.0096805-.0178.00484-.0044.00968-.0089.00968-.0178s.00484-.0133.00968-.0178c.00484-.0044.00968-.0089.00968-.0178 0-.0178 0-.0178.01936-.0356l.01936-.0178.03872-.0356.01936-.0178.03872-.0355c.00968 0 .014521-.0045.019361-.0089.00484-.0045.00968-.0089.01936-.0089s.01452-.0045.01936-.0089c.00484-.0045.00968-.0089.01936-.0089.00968-.0089.01936-.0134.02904-.0178.00968-.0045.01936-.0089.02904-.0178 0-.01784.01936-.01784.01936-.01784h.000001c.07744-.03559.15488-.07119.251681-.08898.07744-.0178.13552-.0178.193601-.0178H3.67842c3.8333 0 7.49238 1.29922 10.31898 3.66622 1.7811 1.495 3.1363 3.3104 3.9881 5.3215.1936-.6052.4066-1.1925.6583-1.7798.1742-.4449.7163-.6585 1.1809-.4805.484.1602.7164.6585.5228 1.0856-.5808 1.3526-.968 2.7586-1.1616 4.1824.5033.0356 1.026.0534 1.5294.0534.5227 0 1.0261-.0178 1.5295-.0534-.213-1.5662-.6583-3.0967-1.3359-4.5561-.6389-1.3882-1.4714-2.6874-2.4587-3.862-.3098-.356-.2517-.8899.1549-1.1747.3872-.2847.968-.2313 1.2777.1424 1.0842 1.2992 1.9941 2.723 2.6911 4.2358.3291.7119.6001 1.4416.8325 2.1891.1936-.445.4065-.8899.6388-1.317.2324-.4094.7938-.5696 1.2391-.356.4453.2136.6195.7297.3872 1.139-.5808 1.0323-.9874 2.1535-1.2391 3.2926.9681-.1602 1.9167-.3916 2.846-.6763-.2904-1.8866-.8325-3.7197-1.6456-5.4816-.3098-.6763-.6583-1.3348-1.0455-1.9755-.2323-.4094-.0774-.9255.3679-1.1391.4453-.2135 1.0067-.0712 1.239.3382.4066.6941.7938 1.406 1.1229 2.1357.8131 1.7797 1.3746 3.6306 1.7037 5.5171 4.3173-1.7263 7.8989-4.7875 10.0866-8.7563h-1.3939c-2.9234 0-5.6919.8543-8.0345 2.4383-.1548.1068-.3484.1601-.542.1601-.2711 0-.5615-.1067-.7357-.3381-.2904-.3737-.213-.9077.1936-1.1746 2.6523-1.7976 5.808-2.75862 9.1186-2.75862h3.0008c.0774.01779.1742.05339.2517.08898l.0193.01784c.0097.0089.0194.0133.0291.0178.0096.0044.0193.0089.029.0178l.0387.0356.0194.0177c0 .011.0074.0152.0176.0211.0063.0035.0137.0077.0211.0145l.0194.0178c.0119 0 .0165.0068.0228.0162.0039.0058.0085.0126.0159.0194l.0194.0178.0387.0356c0 .0089.0048.0134.0097.0178.0048.0045.0096.0089.0096.0178s.0049.0134.0097.0178c.0049.0045.0097.0089.0097.0178s.0048.0134.0097.0178c.0048.0045.0097.0089.0097.0178.0193 0 .0193.0178.0193.0178 0 .0089.0049.0178.0097.0267.0048.0089.0097.0178.0097.0267v.0178c0 .0089.0048.0178.0097.0267.0048.0089.0096.0178.0096.0267v.0356c.0194.0178.0194.0356.0194.0534v.2491c0 .0089-.0048.0223-.0097.0356-.0048.0134-.0097.0267-.0097.0356 0 .0089-.0048.0223-.0096.0356zm-37.74224.6233H2.24609c2.18769 3.9689 5.76931 7.0122 10.04791 8.7564.1549-.8721.3678-1.7442.6195-2.5985.1355-.4449.6389-.7119 1.1229-.5873.484.1246.7744.5873.6389 1.0323-.2711.9076-.484 1.8331-.6195 2.7764.9292.2847 1.8779.5161 2.8459.6763-1.2197-5.802-6.7373-10.0556-13.28104-10.0556z" fill="#FFFFFF" class="logo-image" />
</svg>
