<svg width="24" height="24" viewBox="0 0 24 24" fill="none" xmlns="http://www.w3.org/2000/svg">
    <path
        fill="#000000"
        d="M21.2013 8.78712L23 6.98629H19.0129C16.9465 5.6921 14.5048 5 12.0052 5C9.5057 5 7.06399 5.6921 4.99761 6.98629H1L2.79872 8.78712C2.26622 9.23638 1.83518 9.77784 1.53024 10.3805C1.2253 10.9832 1.05245 11.6353 1.02158 12.2995C0.990701 12.9637 1.1024 13.627 1.35029 14.2515C1.59819 14.8759 1.9774 15.4493 2.46627 15.9388C2.95513 16.4283 3.54404 16.8242 4.19933 17.1041C4.85461 17.384 5.56342 17.5422 6.28521 17.5698C7.007 17.5973 7.72761 17.4937 8.40585 17.2648C9.08408 17.0359 9.70662 16.6861 10.2379 16.2356L12.0002 18L13.7612 16.2368C14.776 17.1043 16.1104 17.5857 17.4955 17.5839C20.5312 17.5839 22.9943 15.3192 22.9943 12.5255C22.9952 11.8218 22.8362 11.1256 22.5274 10.4818C22.2186 9.83798 21.7669 9.26073 21.2013 8.78712ZM6.5023 15.9487C5.7666 15.9487 5.04743 15.7479 4.43572 15.3718C3.82401 14.9956 3.34725 14.461 3.06571 13.8355C2.78417 13.21 2.71051 12.5217 2.85403 11.8577C2.99756 11.1936 3.35183 10.5837 3.87204 10.1049C4.39226 9.62621 5.05506 9.30018 5.77661 9.16809C6.49817 9.03601 7.24609 9.1038 7.92578 9.36289C8.60547 9.62199 9.18642 10.0607 9.59515 10.6237C10.0039 11.1866 10.222 11.8485 10.222 12.5255C10.222 12.9751 10.1258 13.4202 9.93889 13.8355C9.75196 14.2508 9.47796 14.6282 9.13255 14.9461C8.78714 15.264 8.37708 15.5161 7.92578 15.6881C7.47448 15.8602 6.99078 15.9487 6.5023 15.9487ZM12.0002 12.427C12.0002 10.1742 10.2195 8.24127 7.87138 7.41463C9.1795 6.91312 10.5826 6.65492 11.9997 6.65492C13.4168 6.65492 14.8199 6.91312 16.128 7.41463C13.7802 8.24156 12.0002 10.1745 12.0002 12.427ZM17.4955 15.9487C16.7598 15.9487 16.0406 15.7479 15.4289 15.3718C14.8172 14.9956 14.3404 14.461 14.0589 13.8355C13.7774 13.21 13.7037 12.5217 13.8472 11.8577C13.9907 11.1936 14.345 10.5837 14.8652 10.1049C15.3854 9.62621 16.0482 9.30018 16.7698 9.16809C17.4914 9.03601 18.2393 9.1038 18.919 9.36289C19.5987 9.62199 20.1796 10.0607 20.5883 10.6237C20.9971 11.1866 21.2152 11.8485 21.2152 12.5255C21.2152 13.4334 20.8233 14.3041 20.1257 14.9461C19.4282 15.5881 18.482 15.9487 17.4955 15.9487ZM17.4955 10.7311C17.1098 10.7311 16.7327 10.8364 16.412 11.0336C16.0913 11.2308 15.8413 11.5111 15.6937 11.8391C15.5461 12.167 15.5075 12.5279 15.5828 12.876C15.6581 13.2242 15.8439 13.544 16.1166 13.795C16.3894 14.0459 16.7369 14.2168 17.1152 14.2861C17.4935 14.3553 17.8857 14.3197 18.242 14.1838C18.5983 14.0479 18.9029 13.8178 19.1171 13.5227C19.3314 13.2275 19.4457 12.8805 19.4457 12.5255C19.4457 12.2898 19.3952 12.0565 19.2972 11.8388C19.1992 11.621 19.0555 11.4232 18.8744 11.2566C18.6933 11.0899 18.4784 10.9578 18.2418 10.8676C18.0052 10.7775 17.7516 10.7311 17.4955 10.7311ZM8.45247 12.5255C8.45253 12.8805 8.33821 13.2275 8.12396 13.5227C7.90971 13.8178 7.60515 14.0479 7.24881 14.1838C6.89247 14.3197 6.50035 14.3553 6.12203 14.2861C5.74372 14.2168 5.3962 14.0459 5.12343 13.795C4.85066 13.544 4.6649 13.2242 4.58962 12.876C4.51435 12.5279 4.55295 12.167 4.70055 11.8391C4.84814 11.5111 5.0981 11.2308 5.41881 11.0336C5.73952 10.8364 6.11658 10.7311 6.5023 10.7311C7.01946 10.7311 7.51545 10.9201 7.88117 11.2567C8.24688 11.5932 8.45238 12.0496 8.45247 12.5255Z" />
</svg>
