<svg preserveAspectRatio="none" width="100%" height="100%" overflow="visible" style="display: block;" viewBox="0 0 121 69" fill="none" xmlns="http://www.w3.org/2000/svg">
<g id="Group">
<path id="Path" fill-rule="evenodd" clip-rule="evenodd" d="M6.9075 5.03495H11.2039C20.4662 5.03495 29.4496 6.80254 37.9866 10.2306C46.1888 13.5515 53.4982 18.3186 59.8033 24.3713C60.9193 25.4426 61.9794 26.5674 63.0396 27.6922C63.5418 28.2814 64.2671 28.5492 65.0483 28.5492C65.662 28.5492 66.2758 28.335 66.778 27.9065C67.8939 26.9959 68.0055 25.389 67.0012 24.3177C65.8852 23.0858 64.7135 21.9074 63.5418 20.7826C56.7345 14.2478 48.8671 9.15933 40.0511 5.57058C30.9003 1.87472 21.1916 0 11.2597 0H6.9633C5.51257 0 4.34083 1.12483 4.34083 2.51748C4.34083 3.91012 5.45677 5.03495 6.9075 5.03495Z" fill="var(--fill-0, #CCCCCC)"/>
<path id="Path_2" fill-rule="evenodd" clip-rule="evenodd" d="M2.63449 19.7617H10.8182C18.1051 19.7617 25.2238 21.1657 31.8941 23.8657C35.7057 25.4318 39.3492 27.3758 42.6563 29.6978C43.1047 30.0218 43.6653 30.1838 44.2258 30.1838C45.0666 30.1838 45.8513 29.8058 46.3558 29.1578C47.1966 28.0238 46.9724 26.4038 45.7953 25.5938C42.1518 23.0557 38.1721 20.8957 33.9681 19.1677C26.6252 16.1977 18.8338 14.6857 10.8182 14.6857H2.63449C1.17711 14.6857 0 15.8197 0 17.2237C0 18.6277 1.17711 19.7617 2.63449 19.7617Z" fill="var(--fill-0, #CCCCCC)"/>
<path id="Path_3" fill-rule="evenodd" clip-rule="evenodd" d="M65.9431 18.7609C66.5095 18.7609 67.076 18.6024 67.5858 18.2325C72.1742 14.9559 77.2724 12.2078 82.6538 10.0939C91.2641 6.71166 100.441 4.96768 109.844 4.96768H114.489C115.962 4.96768 117.152 3.85788 117.152 2.48384C117.152 1.1098 115.962 0 114.489 0H109.844C99.7045 0 89.9046 1.84967 80.6146 5.49616C74.8366 7.76861 69.3985 10.7281 64.4136 14.2689C63.224 15.1144 62.9974 16.647 63.9038 17.7568C64.357 18.4438 65.15 18.7609 65.9431 18.7609Z" fill="var(--fill-0, #CCCCCC)"/>
<path id="Path_4" fill-rule="evenodd" clip-rule="evenodd" d="M53.388 24.5249C50.0128 28.1502 47.0952 32.0908 44.5781 36.294C43.8917 37.5025 44.3493 39.0262 45.6651 39.6567C46.0655 39.8668 46.5232 39.9719 46.9808 39.9719C47.9533 39.9719 48.8687 39.499 49.3263 38.6584C51.6146 34.7704 54.3605 31.0925 57.5069 27.7299C58.4794 26.6791 58.3078 25.1029 57.2209 24.2622C56.0767 23.369 54.3605 23.4741 53.388 24.5249Z" fill="var(--fill-0, #CCCCCC)"/>
<path id="Path_5" fill-rule="evenodd" clip-rule="evenodd" d="M86.3789 19.0831C79.2819 21.8251 72.8609 25.8087 67.3973 30.8271C65.8766 32.2239 64.4121 33.7242 63.0603 35.2245C62.1591 36.2593 62.3281 37.8113 63.4546 38.6391C63.9615 39.0012 64.5248 39.1564 65.1443 39.1564C65.9329 39.1564 66.6651 38.846 67.2284 38.2252C68.4675 36.8283 69.763 35.4832 71.1711 34.1898C76.184 29.5854 81.9855 26.0157 88.4629 23.4806C95.1656 20.8939 102.319 19.5488 109.641 19.5488H117.977C119.442 19.5488 120.624 18.4623 120.624 17.1172C120.624 15.7721 119.442 14.6857 117.977 14.6857H109.641C101.53 14.7891 93.7011 16.2377 86.3789 19.0831Z" fill="var(--fill-0, #CCCCCC)"/>
<path id="Shape" fill-rule="evenodd" clip-rule="evenodd" d="M120.482 31.6079C120.468 31.6468 120.454 31.6857 120.454 31.7116C120.454 31.7303 120.452 31.7473 120.45 31.7629C120.443 31.834 120.438 31.8765 120.623 31.919C111.544 51.6701 91.863 65.1486 69.0805 67.948C68.7422 68.1035 68.4038 68.1554 68.0655 68.1554H67.7835H67.6707C65.2459 68.4146 62.821 68.5183 60.3397 68.5183C57.6893 68.5183 55.0389 68.3627 52.3884 68.0517H52.2756C42.125 66.9112 32.482 63.5934 23.9103 58.3057C13.365 51.7738 5.18809 42.6499 0.225569 31.9708L0.0563923 31.5042C0 31.245 0 31.0377 0 30.7785V30.6748V30.5193C0.0563923 30.4674 0.0563923 30.4156 0.0563923 30.3637V30.2601C0.0563923 30.2341 0.0704903 30.2082 0.0845884 30.1823C0.0986865 30.1564 0.112785 30.1305 0.112785 30.1045V30.0527C0.112785 30.0268 0.126883 30.0009 0.140981 29.9749C0.155079 29.949 0.169177 29.9231 0.169177 29.8972C0.225569 29.8972 0.225569 29.8453 0.225569 29.8453C0.225569 29.8453 0.281961 29.7935 0.281961 29.7417C0.281961 29.7157 0.296059 29.7028 0.310158 29.6898C0.324256 29.6769 0.338354 29.6639 0.338354 29.638C0.338354 29.6121 0.352452 29.5991 0.36655 29.5861C0.380648 29.5732 0.394746 29.5602 0.394746 29.5343C0.394746 29.4825 0.394746 29.4825 0.451138 29.4306L0.507531 29.3788L0.620315 29.2751L0.676707 29.2233L0.789492 29.1196C0.817688 29.1196 0.831786 29.1066 0.845884 29.0937C0.859982 29.0807 0.87408 29.0677 0.902276 29.0677C0.930473 29.0677 0.944571 29.0548 0.958669 29.0418C0.972767 29.0289 0.986865 29.0159 1.01506 29.0159C1.04326 28.99 1.07145 28.977 1.09965 28.9641C1.12785 28.9511 1.15604 28.9381 1.18424 28.9122C1.18424 28.8604 1.24063 28.8604 1.24063 28.8604C1.4662 28.7567 1.69177 28.653 1.97373 28.6012C2.1993 28.5493 2.36848 28.5493 2.53765 28.5493H10.7145C21.8802 28.5493 32.5383 32.3337 40.7716 39.2284C45.9597 43.583 49.9072 48.8708 52.3884 54.7287C52.9524 52.9662 53.5727 51.2554 54.3058 49.5447C54.8133 48.2487 56.3923 47.6266 57.7457 48.145C59.1555 48.6116 59.8322 50.0631 59.2683 51.3073C57.5765 55.2471 56.4487 59.3425 55.8847 63.4897C57.3509 63.5934 58.8735 63.6453 60.3397 63.6453C61.8623 63.6453 63.3285 63.5934 64.7947 63.4897C64.1744 58.9278 62.8774 54.4695 60.9037 50.2186C59.0427 46.1751 56.6178 42.3907 53.7418 38.9692C52.8396 37.9324 53.0087 36.3772 54.193 35.5478C55.3208 34.7183 57.0126 34.8739 57.9149 35.9625C61.0728 39.7469 63.7233 43.8941 65.7534 48.3005C66.7121 50.3741 67.5016 52.4996 68.1783 54.6769C68.7422 53.3809 69.3625 52.0849 70.0392 50.8407C70.7159 49.6484 72.3513 49.1818 73.6483 49.8039C74.9453 50.426 75.4529 51.9293 74.7762 53.1217C73.0844 56.1284 71.9002 59.3944 71.1671 62.7121C73.9867 62.2456 76.7499 61.5717 79.4567 60.7422C78.6108 55.2471 77.0319 49.9076 74.6634 44.7754C73.7611 42.8054 72.746 40.8873 71.6182 39.0211C70.9415 37.8288 71.3926 36.3254 72.6896 35.7033C73.9867 35.0812 75.622 35.4959 76.2988 36.6883C77.483 38.71 78.6108 40.7837 79.5695 42.9091C81.938 48.0932 83.5733 53.4846 84.532 58.9796C97.1075 53.9511 107.54 45.0346 113.912 33.4742H109.852C101.337 33.4742 93.2728 35.9625 86.4494 40.5763C85.9982 40.8873 85.4343 41.0429 84.8704 41.0429C84.0809 41.0429 83.235 40.7318 82.7275 40.0579C81.8816 38.9692 82.1072 37.414 83.2914 36.6364C91.0171 31.4006 100.209 28.6012 109.852 28.6012H118.085H118.367H118.424H118.593C118.819 28.653 119.1 28.7567 119.326 28.8604L119.382 28.9122C119.411 28.9381 119.439 28.9511 119.467 28.9641C119.495 28.977 119.523 28.99 119.552 29.0159L119.664 29.1196L119.721 29.1714C119.721 29.2035 119.742 29.2157 119.772 29.2326C119.791 29.2431 119.812 29.2553 119.834 29.2751L119.89 29.3269C119.925 29.3269 119.938 29.3467 119.957 29.3741C119.968 29.391 119.981 29.4108 120.003 29.4306L120.059 29.4825L120.172 29.5861C120.172 29.6121 120.186 29.625 120.2 29.638C120.214 29.6509 120.228 29.6639 120.228 29.6898C120.228 29.7157 120.242 29.7287 120.257 29.7417C120.271 29.7546 120.285 29.7676 120.285 29.7935C120.285 29.8194 120.299 29.8324 120.313 29.8453C120.327 29.8583 120.341 29.8713 120.341 29.8972C120.398 29.8972 120.398 29.949 120.398 29.949C120.398 29.9749 120.412 30.0009 120.426 30.0268C120.44 30.0527 120.454 30.0786 120.454 30.1045V30.1564C120.454 30.1823 120.468 30.2082 120.482 30.2341C120.496 30.2601 120.51 30.286 120.51 30.3119V30.4156C120.567 30.4674 120.567 30.5193 120.567 30.5711V30.7266V30.7785V31.2969C120.567 31.3228 120.553 31.3617 120.538 31.4006C120.524 31.4394 120.51 31.4783 120.51 31.5042C120.51 31.5302 120.496 31.569 120.482 31.6079ZM10.5463 33.4233H6.54244C12.9148 44.9837 23.3473 53.8484 35.81 58.9288C36.2612 56.3886 36.8815 53.8484 37.6146 51.3601C38.0093 50.0641 39.4755 49.2865 40.8853 49.6493C42.2951 50.0122 43.141 51.3601 42.7463 52.6561C41.9568 55.2999 41.3365 57.9956 40.9417 60.7432C43.6486 61.5726 46.4118 62.2466 49.2314 62.7131C45.6787 45.8132 29.6069 33.4233 10.5463 33.4233Z" fill="var(--fill-0, #CCCCCC)"/>
</g>
</svg>
